<svg width="98" height="24" viewBox="0 0 98 24" fill="none" xmlns="http://www.w3.org/2000/svg">
<path d="M14.8231 11.9606L11.6259 15.1411L14.5963 18.1458C14.8798 18.4623 15.2271 18.7151 15.6153 18.8878C16.0035 19.0606 16.4239 19.1492 16.8489 19.1479C17.0232 19.1477 17.1972 19.1331 17.3692 19.1043C17.9785 19.0001 18.5409 18.7108 18.9798 18.2758C19.4187 17.8408 19.7129 17.2812 19.8223 16.6732C19.8652 16.4337 19.8798 16.19 19.8659 15.9471L18.2775 16.0415C18.2846 16.1625 18.2773 16.2839 18.2557 16.4031C18.2027 16.688 18.064 16.9499 17.858 17.1539C17.6521 17.3579 17.3888 17.4942 17.1032 17.5446C16.86 17.588 16.6097 17.5681 16.3763 17.487C16.143 17.4059 15.9344 17.2662 15.7706 17.0813L13.8813 15.157L15.9682 13.0788L16.3315 12.6809C17.3608 11.6104 18.0486 10.2585 18.3075 8.79664C18.5665 7.33483 18.385 5.82908 17.786 4.47055C17.187 3.11203 16.1976 1.96199 14.9434 1.16643C13.6891 0.370873 12.2266 -0.0343235 10.7415 0.00227789C9.25644 0.0388793 7.81571 0.515628 6.60225 1.372C5.38878 2.22838 4.45731 3.42576 3.92608 4.81214C3.39485 6.19852 3.28781 7.71138 3.61856 9.15866C3.94931 10.6059 4.70293 11.9224 5.78375 12.9409L7.9215 15.144L6.04243 17.0479L6.01482 17.0755C5.85035 17.2595 5.64169 17.3986 5.40853 17.4796C5.17537 17.5607 4.92539 17.581 4.68217 17.5388C4.39733 17.4886 4.13447 17.3532 3.9284 17.1504C3.72234 16.9475 3.5828 16.687 3.52828 16.4031C3.50669 16.2839 3.49937 16.1625 3.50648 16.0415L1.91952 15.9471C1.90586 16.1899 1.92 16.4336 1.96166 16.6732C2.07174 17.2812 2.36632 17.8406 2.80542 18.2755C3.24453 18.7104 3.80691 18.9998 4.41623 19.1043C4.58815 19.1331 4.76217 19.1477 4.9365 19.1479C5.36143 19.149 5.78179 19.0603 6.17 18.8876C6.55821 18.7149 6.90549 18.4621 7.18906 18.1458L10.145 15.1512L9.48812 14.4774L6.91294 11.8212L6.88387 11.795C6.02806 10.9948 5.4298 9.95818 5.16519 8.81717C4.90059 7.67615 4.9816 6.48227 5.39792 5.38739C5.81424 4.29252 6.54705 3.34614 7.50313 2.66866C8.45921 1.99117 9.59534 1.6132 10.767 1.58283C11.9386 1.55245 13.0929 1.87105 14.0828 2.49808C15.0728 3.12512 15.8537 4.03225 16.3262 5.10408C16.7988 6.17591 16.9417 7.36399 16.7366 8.51718C16.5316 9.67037 15.9879 10.7365 15.1747 11.5801L14.8231 11.9606Z" fill="#E7F0F5"/>
<path d="M6.46387 21.4396L6.43481 21.4701C6.09114 21.8573 5.64579 22.1405 5.14925 22.2876C4.65272 22.4347 4.12488 22.4398 3.62558 22.3023C3.12629 22.1649 2.67552 21.8904 2.32439 21.51C1.97327 21.1295 1.73584 20.6584 1.63903 20.15C1.58955 19.8695 1.58123 19.5833 1.61433 19.3004L0.0302681 19.1116C-0.0205439 19.5498 -0.00732622 19.993 0.0695063 20.4274C0.226871 21.3033 0.650651 22.1095 1.28311 22.7361C1.91557 23.3627 2.72595 23.7792 3.60385 23.9288C3.85261 23.9705 4.10441 23.9913 4.35664 23.9913C4.97068 23.9927 5.57805 23.864 6.13867 23.6136C6.69929 23.3633 7.20044 22.997 7.60905 22.539L9.75116 20.3693L8.61906 19.2539L6.46387 21.4396Z" fill="#E7F0F5"/>
<path d="M20.0548 20.1573C20.1043 19.8768 20.1126 19.5906 20.0795 19.3077L21.6679 19.1203C21.7187 19.5585 21.7055 20.0017 21.6287 20.4361C21.4713 21.3121 21.0475 22.1183 20.4151 22.7448C19.7826 23.3714 18.9722 23.7879 18.0944 23.9375C17.8456 23.9791 17.5938 24 17.3416 24C16.7275 24.0014 16.1202 23.8727 15.5595 23.6224C14.9989 23.372 14.4978 23.0058 14.0892 22.5477L11.947 20.3765L13.0791 19.2612L15.259 21.4774C15.6027 21.8645 16.0481 22.1477 16.5446 22.2948C17.0411 22.4419 17.569 22.4471 18.0683 22.3096C18.5676 22.1722 19.0183 21.8977 19.3694 21.5172C19.7206 21.1368 19.958 20.6657 20.0548 20.1573Z" fill="#E7F0F5"/>
<path fill-rule="evenodd" clip-rule="evenodd" d="M43.8067 20.1392L50.6966 3.68339H50.8274L57.7392 20.1392H55.3108L53.6787 15.9871H47.5983L45.9067 20.1392H43.8067ZM50.6937 8.39023L48.3467 14.1514H52.9579L50.6937 8.39023Z" fill="#E7F0F5"/>
<path d="M32.8288 6.37156H28.6739V4.33837H39.1926V6.37156H34.9505V20.1392H32.8288V6.37156Z" fill="#E7F0F5"/>
<path d="M76.2174 4.33837H73.4838L67.0096 11.0915L66.748 11.485L66.7916 10.6979V4.33837H64.648V20.1392H66.7916V13.7579L68.1257 12.4682L73.898 20.1392H76.588L69.6777 11.1133L76.2174 4.33837Z" fill="#E7F0F5"/>
<path fill-rule="evenodd" clip-rule="evenodd" d="M92.728 4.79876C94.6796 5.64144 96.2358 7.19662 97.0791 9.14688C97.5043 10.1337 97.7205 11.1978 97.7141 12.2722C97.7207 13.3466 97.5045 14.4107 97.0791 15.3975C96.2454 17.3345 94.694 18.874 92.7498 19.6933C91.7604 20.111 90.6963 20.323 89.6224 20.3164C88.5602 20.3251 87.5069 20.1224 86.5238 19.7202C85.5408 19.318 84.6477 18.7243 83.8966 17.9737C83.1455 17.2231 82.5514 16.3307 82.1489 15.3483C81.7464 14.3659 81.5437 13.3133 81.5524 12.2519C81.5454 11.1856 81.756 10.1291 82.1715 9.14688C82.9974 7.19996 84.5391 5.64373 86.4789 4.79876C87.4672 4.37934 88.5298 4.16318 89.6035 4.16318C90.6771 4.16318 91.7398 4.37934 92.728 4.79876ZM93.8092 16.523C94.3457 15.9706 94.7728 15.3216 95.0677 14.6104C95.375 13.8694 95.5302 13.0743 95.5241 12.2722C95.5294 11.4631 95.3722 10.6611 95.0619 9.91369C94.7636 9.19778 94.3371 8.54225 93.8034 7.97925C93.2718 7.42058 92.632 6.97587 91.9229 6.6722C91.1948 6.35837 90.4095 6.19865 89.6165 6.20311C88.8162 6.19748 88.0237 6.36131 87.2913 6.68382C86.5837 6.99275 85.9441 7.43842 85.4093 7.99521C84.8746 8.552 84.4553 9.20892 84.1755 9.92821C83.8837 10.668 83.7358 11.4567 83.7395 12.2519C83.732 13.0566 83.8847 13.8549 84.1886 14.6002C84.4834 15.3114 84.9138 15.9586 85.4558 16.5056C85.9939 17.0567 86.6321 17.5003 87.3364 17.8126C88.0661 18.1222 88.8507 18.2817 89.6434 18.2817C90.4362 18.2817 91.2208 18.1222 91.9505 17.8126C92.6474 17.5063 93.2785 17.0685 93.8092 16.523Z" fill="#E7F0F5"/>
</svg>
